<?xml version="1.0" encoding="utf-8"?>
<!DOCTYPE svg PUBLIC "-//W3C//DTD SVG 20010904//EN" "http://www.w3.org/TR/2001/REC-SVG-20010904/DTD/svg10.dtd">
<svg xmlns="http://www.w3.org/2000/svg" xml:space="preserve" xmlns:xlink="http://www.w3.org/1999/xlink" width="636" height="636" viewBox="0 0 636 636">
<desc></desc>
<rect width="636" height="636" fill="#ffffff" cx="0" cy="0" />
<defs>
<rect id="p" width="12" height="12" />
</defs>
<g fill="#000000">
<use x="24" y="24" xlink:href="#p" />
<use x="36" y="24" xlink:href="#p" />
<use x="48" y="24" xlink:href="#p" />
<use x="60" y="24" xlink:href="#p" />
<use x="72" y="24" xlink:href="#p" />
<use x="84" y="24" xlink:href="#p" />
<use x="96" y="24" xlink:href="#p" />
<use x="120" y="24" xlink:href="#p" />
<use x="144" y="24" xlink:href="#p" />
<use x="156" y="24" xlink:href="#p" />
<use x="180" y="24" xlink:href="#p" />
<use x="192" y="24" xlink:href="#p" />
<use x="252" y="24" xlink:href="#p" />
<use x="264" y="24" xlink:href="#p" />
<use x="276" y="24" xlink:href="#p" />
<use x="312" y="24" xlink:href="#p" />
<use x="324" y="24" xlink:href="#p" />
<use x="336" y="24" xlink:href="#p" />
<use x="348" y="24" xlink:href="#p" />
<use x="384" y="24" xlink:href="#p" />
<use x="396" y="24" xlink:href="#p" />
<use x="408" y="24" xlink:href="#p" />
<use x="420" y="24" xlink:href="#p" />
<use x="432" y="24" xlink:href="#p" />
<use x="444" y="24" xlink:href="#p" />
<use x="456" y="24" xlink:href="#p" />
<use x="504" y="24" xlink:href="#p" />
<use x="528" y="24" xlink:href="#p" />
<use x="540" y="24" xlink:href="#p" />
<use x="552" y="24" xlink:href="#p" />
<use x="564" y="24" xlink:href="#p" />
<use x="576" y="24" xlink:href="#p" />
<use x="588" y="24" xlink:href="#p" />
<use x="600" y="24" xlink:href="#p" />
<use x="24" y="36" xlink:href="#p" />
<use x="96" y="36" xlink:href="#p" />
<use x="132" y="36" xlink:href="#p" />
<use x="144" y="36" xlink:href="#p" />
<use x="180" y="36" xlink:href="#p" />
<use x="192" y="36" xlink:href="#p" />
<use x="204" y="36" xlink:href="#p" />
<use x="228" y="36" xlink:href="#p" />
<use x="240" y="36" xlink:href="#p" />
<use x="288" y="36" xlink:href="#p" />
<use x="300" y="36" xlink:href="#p" />
<use x="312" y="36" xlink:href="#p" />
<use x="324" y="36" xlink:href="#p" />
<use x="348" y="36" xlink:href="#p" />
<use x="396" y="36" xlink:href="#p" />
<use x="420" y="36" xlink:href="#p" />
<use x="432" y="36" xlink:href="#p" />
<use x="444" y="36" xlink:href="#p" />
<use x="456" y="36" xlink:href="#p" />
<use x="480" y="36" xlink:href="#p" />
<use x="492" y="36" xlink:href="#p" />
<use x="504" y="36" xlink:href="#p" />
<use x="528" y="36" xlink:href="#p" />
<use x="600" y="36" xlink:href="#p" />
<use x="24" y="48" xlink:href="#p" />
<use x="48" y="48" xlink:href="#p" />
<use x="60" y="48" xlink:href="#p" />
<use x="72" y="48" xlink:href="#p" />
<use x="96" y="48" xlink:href="#p" />
<use x="156" y="48" xlink:href="#p" />
<use x="204" y="48" xlink:href="#p" />
<use x="252" y="48" xlink:href="#p" />
<use x="264" y="48" xlink:href="#p" />
<use x="276" y="48" xlink:href="#p" />
<use x="324" y="48" xlink:href="#p" />
<use x="336" y="48" xlink:href="#p" />
<use x="348" y="48" xlink:href="#p" />
<use x="360" y="48" xlink:href="#p" />
<use x="372" y="48" xlink:href="#p" />
<use x="432" y="48" xlink:href="#p" />
<use x="492" y="48" xlink:href="#p" />
<use x="504" y="48" xlink:href="#p" />
<use x="528" y="48" xlink:href="#p" />
<use x="552" y="48" xlink:href="#p" />
<use x="564" y="48" xlink:href="#p" />
<use x="576" y="48" xlink:href="#p" />
<use x="600" y="48" xlink:href="#p" />
<use x="24" y="60" xlink:href="#p" />
<use x="48" y="60" xlink:href="#p" />
<use x="60" y="60" xlink:href="#p" />
<use x="72" y="60" xlink:href="#p" />
<use x="96" y="60" xlink:href="#p" />
<use x="120" y="60" xlink:href="#p" />
<use x="156" y="60" xlink:href="#p" />
<use x="192" y="60" xlink:href="#p" />
<use x="228" y="60" xlink:href="#p" />
<use x="240" y="60" xlink:href="#p" />
<use x="252" y="60" xlink:href="#p" />
<use x="288" y="60" xlink:href="#p" />
<use x="300" y="60" xlink:href="#p" />
<use x="312" y="60" xlink:href="#p" />
<use x="324" y="60" xlink:href="#p" />
<use x="348" y="60" xlink:href="#p" />
<use x="408" y="60" xlink:href="#p" />
<use x="420" y="60" xlink:href="#p" />
<use x="444" y="60" xlink:href="#p" />
<use x="492" y="60" xlink:href="#p" />
<use x="528" y="60" xlink:href="#p" />
<use x="552" y="60" xlink:href="#p" />
<use x="564" y="60" xlink:href="#p" />
<use x="576" y="60" xlink:href="#p" />
<use x="600" y="60" xlink:href="#p" />
<use x="24" y="72" xlink:href="#p" />
<use x="48" y="72" xlink:href="#p" />
<use x="60" y="72" xlink:href="#p" />
<use x="72" y="72" xlink:href="#p" />
<use x="96" y="72" xlink:href="#p" />
<use x="132" y="72" xlink:href="#p" />
<use x="180" y="72" xlink:href="#p" />
<use x="192" y="72" xlink:href="#p" />
<use x="252" y="72" xlink:href="#p" />
<use x="276" y="72" xlink:href="#p" />
<use x="288" y="72" xlink:href="#p" />
<use x="300" y="72" xlink:href="#p" />
<use x="312" y="72" xlink:href="#p" />
<use x="324" y="72" xlink:href="#p" />
<use x="336" y="72" xlink:href="#p" />
<use x="384" y="72" xlink:href="#p" />
<use x="408" y="72" xlink:href="#p" />
<use x="420" y="72" xlink:href="#p" />
<use x="432" y="72" xlink:href="#p" />
<use x="444" y="72" xlink:href="#p" />
<use x="456" y="72" xlink:href="#p" />
<use x="528" y="72" xlink:href="#p" />
<use x="552" y="72" xlink:href="#p" />
<use x="564" y="72" xlink:href="#p" />
<use x="576" y="72" xlink:href="#p" />
<use x="600" y="72" xlink:href="#p" />
<use x="24" y="84" xlink:href="#p" />
<use x="96" y="84" xlink:href="#p" />
<use x="168" y="84" xlink:href="#p" />
<use x="180" y="84" xlink:href="#p" />
<use x="216" y="84" xlink:href="#p" />
<use x="264" y="84" xlink:href="#p" />
<use x="288" y="84" xlink:href="#p" />
<use x="336" y="84" xlink:href="#p" />
<use x="372" y="84" xlink:href="#p" />
<use x="408" y="84" xlink:href="#p" />
<use x="420" y="84" xlink:href="#p" />
<use x="456" y="84" xlink:href="#p" />
<use x="480" y="84" xlink:href="#p" />
<use x="528" y="84" xlink:href="#p" />
<use x="600" y="84" xlink:href="#p" />
<use x="24" y="96" xlink:href="#p" />
<use x="36" y="96" xlink:href="#p" />
<use x="48" y="96" xlink:href="#p" />
<use x="60" y="96" xlink:href="#p" />
<use x="72" y="96" xlink:href="#p" />
<use x="84" y="96" xlink:href="#p" />
<use x="96" y="96" xlink:href="#p" />
<use x="120" y="96" xlink:href="#p" />
<use x="144" y="96" xlink:href="#p" />
<use x="168" y="96" xlink:href="#p" />
<use x="192" y="96" xlink:href="#p" />
<use x="216" y="96" xlink:href="#p" />
<use x="240" y="96" xlink:href="#p" />
<use x="264" y="96" xlink:href="#p" />
<use x="288" y="96" xlink:href="#p" />
<use x="312" y="96" xlink:href="#p" />
<use x="336" y="96" xlink:href="#p" />
<use x="360" y="96" xlink:href="#p" />
<use x="384" y="96" xlink:href="#p" />
<use x="408" y="96" xlink:href="#p" />
<use x="432" y="96" xlink:href="#p" />
<use x="456" y="96" xlink:href="#p" />
<use x="480" y="96" xlink:href="#p" />
<use x="504" y="96" xlink:href="#p" />
<use x="528" y="96" xlink:href="#p" />
<use x="540" y="96" xlink:href="#p" />
<use x="552" y="96" xlink:href="#p" />
<use x="564" y="96" xlink:href="#p" />
<use x="576" y="96" xlink:href="#p" />
<use x="588" y="96" xlink:href="#p" />
<use x="600" y="96" xlink:href="#p" />
<use x="132" y="108" xlink:href="#p" />
<use x="156" y="108" xlink:href="#p" />
<use x="168" y="108" xlink:href="#p" />
<use x="192" y="108" xlink:href="#p" />
<use x="204" y="108" xlink:href="#p" />
<use x="216" y="108" xlink:href="#p" />
<use x="228" y="108" xlink:href="#p" />
<use x="288" y="108" xlink:href="#p" />
<use x="336" y="108" xlink:href="#p" />
<use x="348" y="108" xlink:href="#p" />
<use x="420" y="108" xlink:href="#p" />
<use x="468" y="108" xlink:href="#p" />
<use x="504" y="108" xlink:href="#p" />
<use x="48" y="120" xlink:href="#p" />
<use x="72" y="120" xlink:href="#p" />
<use x="84" y="120" xlink:href="#p" />
<use x="96" y="120" xlink:href="#p" />
<use x="120" y="120" xlink:href="#p" />
<use x="168" y="120" xlink:href="#p" />
<use x="180" y="120" xlink:href="#p" />
<use x="204" y="120" xlink:href="#p" />
<use x="216" y="120" xlink:href="#p" />
<use x="240" y="120" xlink:href="#p" />
<use x="288" y="120" xlink:href="#p" />
<use x="300" y="120" xlink:href="#p" />
<use x="312" y="120" xlink:href="#p" />
<use x="324" y="120" xlink:href="#p" />
<use x="336" y="120" xlink:href="#p" />
<use x="348" y="120" xlink:href="#p" />
<use x="372" y="120" xlink:href="#p" />
<use x="384" y="120" xlink:href="#p" />
<use x="456" y="120" xlink:href="#p" />
<use x="468" y="120" xlink:href="#p" />
<use x="516" y="120" xlink:href="#p" />
<use x="564" y="120" xlink:href="#p" />
<use x="600" y="120" xlink:href="#p" />
<use x="36" y="132" xlink:href="#p" />
<use x="48" y="132" xlink:href="#p" />
<use x="72" y="132" xlink:href="#p" />
<use x="108" y="132" xlink:href="#p" />
<use x="132" y="132" xlink:href="#p" />
<use x="168" y="132" xlink:href="#p" />
<use x="240" y="132" xlink:href="#p" />
<use x="264" y="132" xlink:href="#p" />
<use x="276" y="132" xlink:href="#p" />
<use x="288" y="132" xlink:href="#p" />
<use x="324" y="132" xlink:href="#p" />
<use x="336" y="132" xlink:href="#p" />
<use x="372" y="132" xlink:href="#p" />
<use x="384" y="132" xlink:href="#p" />
<use x="396" y="132" xlink:href="#p" />
<use x="420" y="132" xlink:href="#p" />
<use x="432" y="132" xlink:href="#p" />
<use x="468" y="132" xlink:href="#p" />
<use x="516" y="132" xlink:href="#p" />
<use x="564" y="132" xlink:href="#p" />
<use x="588" y="132" xlink:href="#p" />
<use x="600" y="132" xlink:href="#p" />
<use x="24" y="144" xlink:href="#p" />
<use x="36" y="144" xlink:href="#p" />
<use x="60" y="144" xlink:href="#p" />
<use x="72" y="144" xlink:href="#p" />
<use x="84" y="144" xlink:href="#p" />
<use x="96" y="144" xlink:href="#p" />
<use x="144" y="144" xlink:href="#p" />
<use x="156" y="144" xlink:href="#p" />
<use x="168" y="144" xlink:href="#p" />
<use x="180" y="144" xlink:href="#p" />
<use x="192" y="144" xlink:href="#p" />
<use x="216" y="144" xlink:href="#p" />
<use x="264" y="144" xlink:href="#p" />
<use x="300" y="144" xlink:href="#p" />
<use x="336" y="144" xlink:href="#p" />
<use x="348" y="144" xlink:href="#p" />
<use x="384" y="144" xlink:href="#p" />
<use x="456" y="144" xlink:href="#p" />
<use x="468" y="144" xlink:href="#p" />
<use x="480" y="144" xlink:href="#p" />
<use x="492" y="144" xlink:href="#p" />
<use x="528" y="144" xlink:href="#p" />
<use x="552" y="144" xlink:href="#p" />
<use x="588" y="144" xlink:href="#p" />
<use x="600" y="144" xlink:href="#p" />
<use x="36" y="156" xlink:href="#p" />
<use x="48" y="156" xlink:href="#p" />
<use x="72" y="156" xlink:href="#p" />
<use x="84" y="156" xlink:href="#p" />
<use x="120" y="156" xlink:href="#p" />
<use x="132" y="156" xlink:href="#p" />
<use x="168" y="156" xlink:href="#p" />
<use x="204" y="156" xlink:href="#p" />
<use x="216" y="156" xlink:href="#p" />
<use x="228" y="156" xlink:href="#p" />
<use x="240" y="156" xlink:href="#p" />
<use x="264" y="156" xlink:href="#p" />
<use x="276" y="156" xlink:href="#p" />
<use x="288" y="156" xlink:href="#p" />
<use x="300" y="156" xlink:href="#p" />
<use x="312" y="156" xlink:href="#p" />
<use x="360" y="156" xlink:href="#p" />
<use x="384" y="156" xlink:href="#p" />
<use x="420" y="156" xlink:href="#p" />
<use x="456" y="156" xlink:href="#p" />
<use x="468" y="156" xlink:href="#p" />
<use x="516" y="156" xlink:href="#p" />
<use x="552" y="156" xlink:href="#p" />
<use x="576" y="156" xlink:href="#p" />
<use x="588" y="156" xlink:href="#p" />
<use x="36" y="168" xlink:href="#p" />
<use x="72" y="168" xlink:href="#p" />
<use x="96" y="168" xlink:href="#p" />
<use x="120" y="168" xlink:href="#p" />
<use x="132" y="168" xlink:href="#p" />
<use x="144" y="168" xlink:href="#p" />
<use x="180" y="168" xlink:href="#p" />
<use x="192" y="168" xlink:href="#p" />
<use x="204" y="168" xlink:href="#p" />
<use x="228" y="168" xlink:href="#p" />
<use x="240" y="168" xlink:href="#p" />
<use x="252" y="168" xlink:href="#p" />
<use x="264" y="168" xlink:href="#p" />
<use x="288" y="168" xlink:href="#p" />
<use x="300" y="168" xlink:href="#p" />
<use x="324" y="168" xlink:href="#p" />
<use x="336" y="168" xlink:href="#p" />
<use x="348" y="168" xlink:href="#p" />
<use x="360" y="168" xlink:href="#p" />
<use x="372" y="168" xlink:href="#p" />
<use x="384" y="168" xlink:href="#p" />
<use x="420" y="168" xlink:href="#p" />
<use x="468" y="168" xlink:href="#p" />
<use x="480" y="168" xlink:href="#p" />
<use x="552" y="168" xlink:href="#p" />
<use x="576" y="168" xlink:href="#p" />
<use x="588" y="168" xlink:href="#p" />
<use x="36" y="180" xlink:href="#p" />
<use x="48" y="180" xlink:href="#p" />
<use x="60" y="180" xlink:href="#p" />
<use x="84" y="180" xlink:href="#p" />
<use x="144" y="180" xlink:href="#p" />
<use x="156" y="180" xlink:href="#p" />
<use x="168" y="180" xlink:href="#p" />
<use x="180" y="180" xlink:href="#p" />
<use x="192" y="180" xlink:href="#p" />
<use x="216" y="180" xlink:href="#p" />
<use x="252" y="180" xlink:href="#p" />
<use x="264" y="180" xlink:href="#p" />
<use x="276" y="180" xlink:href="#p" />
<use x="300" y="180" xlink:href="#p" />
<use x="312" y="180" xlink:href="#p" />
<use x="336" y="180" xlink:href="#p" />
<use x="348" y="180" xlink:href="#p" />
<use x="360" y="180" xlink:href="#p" />
<use x="372" y="180" xlink:href="#p" />
<use x="384" y="180" xlink:href="#p" />
<use x="408" y="180" xlink:href="#p" />
<use x="420" y="180" xlink:href="#p" />
<use x="432" y="180" xlink:href="#p" />
<use x="444" y="180" xlink:href="#p" />
<use x="456" y="180" xlink:href="#p" />
<use x="468" y="180" xlink:href="#p" />
<use x="480" y="180" xlink:href="#p" />
<use x="492" y="180" xlink:href="#p" />
<use x="540" y="180" xlink:href="#p" />
<use x="552" y="180" xlink:href="#p" />
<use x="564" y="180" xlink:href="#p" />
<use x="588" y="180" xlink:href="#p" />
<use x="600" y="180" xlink:href="#p" />
<use x="60" y="192" xlink:href="#p" />
<use x="84" y="192" xlink:href="#p" />
<use x="96" y="192" xlink:href="#p" />
<use x="120" y="192" xlink:href="#p" />
<use x="132" y="192" xlink:href="#p" />
<use x="156" y="192" xlink:href="#p" />
<use x="180" y="192" xlink:href="#p" />
<use x="192" y="192" xlink:href="#p" />
<use x="204" y="192" xlink:href="#p" />
<use x="216" y="192" xlink:href="#p" />
<use x="228" y="192" xlink:href="#p" />
<use x="252" y="192" xlink:href="#p" />
<use x="300" y="192" xlink:href="#p" />
<use x="348" y="192" xlink:href="#p" />
<use x="372" y="192" xlink:href="#p" />
<use x="408" y="192" xlink:href="#p" />
<use x="420" y="192" xlink:href="#p" />
<use x="456" y="192" xlink:href="#p" />
<use x="468" y="192" xlink:href="#p" />
<use x="480" y="192" xlink:href="#p" />
<use x="516" y="192" xlink:href="#p" />
<use x="528" y="192" xlink:href="#p" />
<use x="552" y="192" xlink:href="#p" />
<use x="564" y="192" xlink:href="#p" />
<use x="600" y="192" xlink:href="#p" />
<use x="24" y="204" xlink:href="#p" />
<use x="48" y="204" xlink:href="#p" />
<use x="60" y="204" xlink:href="#p" />
<use x="72" y="204" xlink:href="#p" />
<use x="84" y="204" xlink:href="#p" />
<use x="132" y="204" xlink:href="#p" />
<use x="144" y="204" xlink:href="#p" />
<use x="180" y="204" xlink:href="#p" />
<use x="192" y="204" xlink:href="#p" />
<use x="204" y="204" xlink:href="#p" />
<use x="216" y="204" xlink:href="#p" />
<use x="324" y="204" xlink:href="#p" />
<use x="360" y="204" xlink:href="#p" />
<use x="432" y="204" xlink:href="#p" />
<use x="444" y="204" xlink:href="#p" />
<use x="456" y="204" xlink:href="#p" />
<use x="468" y="204" xlink:href="#p" />
<use x="480" y="204" xlink:href="#p" />
<use x="492" y="204" xlink:href="#p" />
<use x="504" y="204" xlink:href="#p" />
<use x="516" y="204" xlink:href="#p" />
<use x="528" y="204" xlink:href="#p" />
<use x="540" y="204" xlink:href="#p" />
<use x="552" y="204" xlink:href="#p" />
<use x="564" y="204" xlink:href="#p" />
<use x="84" y="216" xlink:href="#p" />
<use x="96" y="216" xlink:href="#p" />
<use x="108" y="216" xlink:href="#p" />
<use x="120" y="216" xlink:href="#p" />
<use x="156" y="216" xlink:href="#p" />
<use x="168" y="216" xlink:href="#p" />
<use x="192" y="216" xlink:href="#p" />
<use x="216" y="216" xlink:href="#p" />
<use x="240" y="216" xlink:href="#p" />
<use x="252" y="216" xlink:href="#p" />
<use x="276" y="216" xlink:href="#p" />
<use x="300" y="216" xlink:href="#p" />
<use x="312" y="216" xlink:href="#p" />
<use x="324" y="216" xlink:href="#p" />
<use x="348" y="216" xlink:href="#p" />
<use x="372" y="216" xlink:href="#p" />
<use x="408" y="216" xlink:href="#p" />
<use x="456" y="216" xlink:href="#p" />
<use x="468" y="216" xlink:href="#p" />
<use x="480" y="216" xlink:href="#p" />
<use x="516" y="216" xlink:href="#p" />
<use x="552" y="216" xlink:href="#p" />
<use x="588" y="216" xlink:href="#p" />
<use x="24" y="228" xlink:href="#p" />
<use x="48" y="228" xlink:href="#p" />
<use x="72" y="228" xlink:href="#p" />
<use x="108" y="228" xlink:href="#p" />
<use x="120" y="228" xlink:href="#p" />
<use x="132" y="228" xlink:href="#p" />
<use x="168" y="228" xlink:href="#p" />
<use x="204" y="228" xlink:href="#p" />
<use x="240" y="228" xlink:href="#p" />
<use x="252" y="228" xlink:href="#p" />
<use x="264" y="228" xlink:href="#p" />
<use x="276" y="228" xlink:href="#p" />
<use x="288" y="228" xlink:href="#p" />
<use x="300" y="228" xlink:href="#p" />
<use x="312" y="228" xlink:href="#p" />
<use x="348" y="228" xlink:href="#p" />
<use x="396" y="228" xlink:href="#p" />
<use x="408" y="228" xlink:href="#p" />
<use x="432" y="228" xlink:href="#p" />
<use x="444" y="228" xlink:href="#p" />
<use x="456" y="228" xlink:href="#p" />
<use x="468" y="228" xlink:href="#p" />
<use x="480" y="228" xlink:href="#p" />
<use x="504" y="228" xlink:href="#p" />
<use x="516" y="228" xlink:href="#p" />
<use x="564" y="228" xlink:href="#p" />
<use x="576" y="228" xlink:href="#p" />
<use x="588" y="228" xlink:href="#p" />
<use x="600" y="228" xlink:href="#p" />
<use x="36" y="240" xlink:href="#p" />
<use x="48" y="240" xlink:href="#p" />
<use x="60" y="240" xlink:href="#p" />
<use x="96" y="240" xlink:href="#p" />
<use x="108" y="240" xlink:href="#p" />
<use x="132" y="240" xlink:href="#p" />
<use x="168" y="240" xlink:href="#p" />
<use x="180" y="240" xlink:href="#p" />
<use x="192" y="240" xlink:href="#p" />
<use x="216" y="240" xlink:href="#p" />
<use x="240" y="240" xlink:href="#p" />
<use x="276" y="240" xlink:href="#p" />
<use x="300" y="240" xlink:href="#p" />
<use x="336" y="240" xlink:href="#p" />
<use x="384" y="240" xlink:href="#p" />
<use x="408" y="240" xlink:href="#p" />
<use x="432" y="240" xlink:href="#p" />
<use x="456" y="240" xlink:href="#p" />
<use x="480" y="240" xlink:href="#p" />
<use x="492" y="240" xlink:href="#p" />
<use x="504" y="240" xlink:href="#p" />
<use x="516" y="240" xlink:href="#p" />
<use x="540" y="240" xlink:href="#p" />
<use x="576" y="240" xlink:href="#p" />
<use x="588" y="240" xlink:href="#p" />
<use x="600" y="240" xlink:href="#p" />
<use x="24" y="252" xlink:href="#p" />
<use x="36" y="252" xlink:href="#p" />
<use x="48" y="252" xlink:href="#p" />
<use x="60" y="252" xlink:href="#p" />
<use x="72" y="252" xlink:href="#p" />
<use x="132" y="252" xlink:href="#p" />
<use x="144" y="252" xlink:href="#p" />
<use x="156" y="252" xlink:href="#p" />
<use x="216" y="252" xlink:href="#p" />
<use x="252" y="252" xlink:href="#p" />
<use x="276" y="252" xlink:href="#p" />
<use x="288" y="252" xlink:href="#p" />
<use x="312" y="252" xlink:href="#p" />
<use x="360" y="252" xlink:href="#p" />
<use x="372" y="252" xlink:href="#p" />
<use x="384" y="252" xlink:href="#p" />
<use x="396" y="252" xlink:href="#p" />
<use x="432" y="252" xlink:href="#p" />
<use x="444" y="252" xlink:href="#p" />
<use x="456" y="252" xlink:href="#p" />
<use x="480" y="252" xlink:href="#p" />
<use x="492" y="252" xlink:href="#p" />
<use x="504" y="252" xlink:href="#p" />
<use x="516" y="252" xlink:href="#p" />
<use x="552" y="252" xlink:href="#p" />
<use x="588" y="252" xlink:href="#p" />
<use x="600" y="252" xlink:href="#p" />
<use x="60" y="264" xlink:href="#p" />
<use x="72" y="264" xlink:href="#p" />
<use x="84" y="264" xlink:href="#p" />
<use x="96" y="264" xlink:href="#p" />
<use x="132" y="264" xlink:href="#p" />
<use x="144" y="264" xlink:href="#p" />
<use x="156" y="264" xlink:href="#p" />
<use x="204" y="264" xlink:href="#p" />
<use x="216" y="264" xlink:href="#p" />
<use x="228" y="264" xlink:href="#p" />
<use x="264" y="264" xlink:href="#p" />
<use x="276" y="264" xlink:href="#p" />
<use x="360" y="264" xlink:href="#p" />
<use x="372" y="264" xlink:href="#p" />
<use x="384" y="264" xlink:href="#p" />
<use x="396" y="264" xlink:href="#p" />
<use x="456" y="264" xlink:href="#p" />
<use x="468" y="264" xlink:href="#p" />
<use x="492" y="264" xlink:href="#p" />
<use x="504" y="264" xlink:href="#p" />
<use x="528" y="264" xlink:href="#p" />
<use x="540" y="264" xlink:href="#p" />
<use x="552" y="264" xlink:href="#p" />
<use x="564" y="264" xlink:href="#p" />
<use x="588" y="264" xlink:href="#p" />
<use x="48" y="276" xlink:href="#p" />
<use x="60" y="276" xlink:href="#p" />
<use x="72" y="276" xlink:href="#p" />
<use x="84" y="276" xlink:href="#p" />
<use x="120" y="276" xlink:href="#p" />
<use x="156" y="276" xlink:href="#p" />
<use x="180" y="276" xlink:href="#p" />
<use x="192" y="276" xlink:href="#p" />
<use x="228" y="276" xlink:href="#p" />
<use x="240" y="276" xlink:href="#p" />
<use x="276" y="276" xlink:href="#p" />
<use x="324" y="276" xlink:href="#p" />
<use x="336" y="276" xlink:href="#p" />
<use x="372" y="276" xlink:href="#p" />
<use x="468" y="276" xlink:href="#p" />
<use x="492" y="276" xlink:href="#p" />
<use x="504" y="276" xlink:href="#p" />
<use x="540" y="276" xlink:href="#p" />
<use x="564" y="276" xlink:href="#p" />
<use x="588" y="276" xlink:href="#p" />
<use x="600" y="276" xlink:href="#p" />
<use x="60" y="288" xlink:href="#p" />
<use x="72" y="288" xlink:href="#p" />
<use x="84" y="288" xlink:href="#p" />
<use x="96" y="288" xlink:href="#p" />
<use x="108" y="288" xlink:href="#p" />
<use x="120" y="288" xlink:href="#p" />
<use x="132" y="288" xlink:href="#p" />
<use x="144" y="288" xlink:href="#p" />
<use x="156" y="288" xlink:href="#p" />
<use x="168" y="288" xlink:href="#p" />
<use x="180" y="288" xlink:href="#p" />
<use x="216" y="288" xlink:href="#p" />
<use x="252" y="288" xlink:href="#p" />
<use x="264" y="288" xlink:href="#p" />
<use x="276" y="288" xlink:href="#p" />
<use x="288" y="288" xlink:href="#p" />
<use x="300" y="288" xlink:href="#p" />
<use x="312" y="288" xlink:href="#p" />
<use x="324" y="288" xlink:href="#p" />
<use x="336" y="288" xlink:href="#p" />
<use x="348" y="288" xlink:href="#p" />
<use x="384" y="288" xlink:href="#p" />
<use x="396" y="288" xlink:href="#p" />
<use x="408" y="288" xlink:href="#p" />
<use x="420" y="288" xlink:href="#p" />
<use x="444" y="288" xlink:href="#p" />
<use x="456" y="288" xlink:href="#p" />
<use x="504" y="288" xlink:href="#p" />
<use x="516" y="288" xlink:href="#p" />
<use x="528" y="288" xlink:href="#p" />
<use x="540" y="288" xlink:href="#p" />
<use x="552" y="288" xlink:href="#p" />
<use x="564" y="288" xlink:href="#p" />
<use x="588" y="288" xlink:href="#p" />
<use x="600" y="288" xlink:href="#p" />
<use x="48" y="300" xlink:href="#p" />
<use x="72" y="300" xlink:href="#p" />
<use x="120" y="300" xlink:href="#p" />
<use x="132" y="300" xlink:href="#p" />
<use x="168" y="300" xlink:href="#p" />
<use x="180" y="300" xlink:href="#p" />
<use x="192" y="300" xlink:href="#p" />
<use x="216" y="300" xlink:href="#p" />
<use x="252" y="300" xlink:href="#p" />
<use x="276" y="300" xlink:href="#p" />
<use x="288" y="300" xlink:href="#p" />
<use x="336" y="300" xlink:href="#p" />
<use x="360" y="300" xlink:href="#p" />
<use x="432" y="300" xlink:href="#p" />
<use x="444" y="300" xlink:href="#p" />
<use x="456" y="300" xlink:href="#p" />
<use x="468" y="300" xlink:href="#p" />
<use x="480" y="300" xlink:href="#p" />
<use x="504" y="300" xlink:href="#p" />
<use x="552" y="300" xlink:href="#p" />
<use x="24" y="312" xlink:href="#p" />
<use x="36" y="312" xlink:href="#p" />
<use x="48" y="312" xlink:href="#p" />
<use x="72" y="312" xlink:href="#p" />
<use x="96" y="312" xlink:href="#p" />
<use x="120" y="312" xlink:href="#p" />
<use x="132" y="312" xlink:href="#p" />
<use x="144" y="312" xlink:href="#p" />
<use x="156" y="312" xlink:href="#p" />
<use x="168" y="312" xlink:href="#p" />
<use x="180" y="312" xlink:href="#p" />
<use x="216" y="312" xlink:href="#p" />
<use x="228" y="312" xlink:href="#p" />
<use x="240" y="312" xlink:href="#p" />
<use x="252" y="312" xlink:href="#p" />
<use x="288" y="312" xlink:href="#p" />
<use x="312" y="312" xlink:href="#p" />
<use x="336" y="312" xlink:href="#p" />
<use x="348" y="312" xlink:href="#p" />
<use x="384" y="312" xlink:href="#p" />
<use x="408" y="312" xlink:href="#p" />
<use x="444" y="312" xlink:href="#p" />
<use x="456" y="312" xlink:href="#p" />
<use x="468" y="312" xlink:href="#p" />
<use x="480" y="312" xlink:href="#p" />
<use x="504" y="312" xlink:href="#p" />
<use x="528" y="312" xlink:href="#p" />
<use x="552" y="312" xlink:href="#p" />
<use x="588" y="312" xlink:href="#p" />
<use x="600" y="312" xlink:href="#p" />
<use x="24" y="324" xlink:href="#p" />
<use x="36" y="324" xlink:href="#p" />
<use x="72" y="324" xlink:href="#p" />
<use x="120" y="324" xlink:href="#p" />
<use x="132" y="324" xlink:href="#p" />
<use x="168" y="324" xlink:href="#p" />
<use x="192" y="324" xlink:href="#p" />
<use x="216" y="324" xlink:href="#p" />
<use x="276" y="324" xlink:href="#p" />
<use x="288" y="324" xlink:href="#p" />
<use x="336" y="324" xlink:href="#p" />
<use x="348" y="324" xlink:href="#p" />
<use x="420" y="324" xlink:href="#p" />
<use x="444" y="324" xlink:href="#p" />
<use x="456" y="324" xlink:href="#p" />
<use x="468" y="324" xlink:href="#p" />
<use x="504" y="324" xlink:href="#p" />
<use x="552" y="324" xlink:href="#p" />
<use x="576" y="324" xlink:href="#p" />
<use x="600" y="324" xlink:href="#p" />
<use x="24" y="336" xlink:href="#p" />
<use x="36" y="336" xlink:href="#p" />
<use x="48" y="336" xlink:href="#p" />
<use x="72" y="336" xlink:href="#p" />
<use x="84" y="336" xlink:href="#p" />
<use x="96" y="336" xlink:href="#p" />
<use x="108" y="336" xlink:href="#p" />
<use x="120" y="336" xlink:href="#p" />
<use x="132" y="336" xlink:href="#p" />
<use x="144" y="336" xlink:href="#p" />
<use x="168" y="336" xlink:href="#p" />
<use x="192" y="336" xlink:href="#p" />
<use x="240" y="336" xlink:href="#p" />
<use x="252" y="336" xlink:href="#p" />
<use x="288" y="336" xlink:href="#p" />
<use x="300" y="336" xlink:href="#p" />
<use x="312" y="336" xlink:href="#p" />
<use x="324" y="336" xlink:href="#p" />
<use x="336" y="336" xlink:href="#p" />
<use x="348" y="336" xlink:href="#p" />
<use x="360" y="336" xlink:href="#p" />
<use x="372" y="336" xlink:href="#p" />
<use x="408" y="336" xlink:href="#p" />
<use x="456" y="336" xlink:href="#p" />
<use x="504" y="336" xlink:href="#p" />
<use x="516" y="336" xlink:href="#p" />
<use x="528" y="336" xlink:href="#p" />
<use x="540" y="336" xlink:href="#p" />
<use x="552" y="336" xlink:href="#p" />
<use x="564" y="336" xlink:href="#p" />
<use x="36" y="348" xlink:href="#p" />
<use x="132" y="348" xlink:href="#p" />
<use x="204" y="348" xlink:href="#p" />
<use x="216" y="348" xlink:href="#p" />
<use x="252" y="348" xlink:href="#p" />
<use x="264" y="348" xlink:href="#p" />
<use x="276" y="348" xlink:href="#p" />
<use x="300" y="348" xlink:href="#p" />
<use x="360" y="348" xlink:href="#p" />
<use x="384" y="348" xlink:href="#p" />
<use x="408" y="348" xlink:href="#p" />
<use x="420" y="348" xlink:href="#p" />
<use x="444" y="348" xlink:href="#p" />
<use x="456" y="348" xlink:href="#p" />
<use x="468" y="348" xlink:href="#p" />
<use x="492" y="348" xlink:href="#p" />
<use x="504" y="348" xlink:href="#p" />
<use x="528" y="348" xlink:href="#p" />
<use x="600" y="348" xlink:href="#p" />
<use x="36" y="360" xlink:href="#p" />
<use x="48" y="360" xlink:href="#p" />
<use x="60" y="360" xlink:href="#p" />
<use x="72" y="360" xlink:href="#p" />
<use x="96" y="360" xlink:href="#p" />
<use x="156" y="360" xlink:href="#p" />
<use x="180" y="360" xlink:href="#p" />
<use x="216" y="360" xlink:href="#p" />
<use x="228" y="360" xlink:href="#p" />
<use x="240" y="360" xlink:href="#p" />
<use x="264" y="360" xlink:href="#p" />
<use x="336" y="360" xlink:href="#p" />
<use x="348" y="360" xlink:href="#p" />
<use x="396" y="360" xlink:href="#p" />
<use x="408" y="360" xlink:href="#p" />
<use x="444" y="360" xlink:href="#p" />
<use x="456" y="360" xlink:href="#p" />
<use x="516" y="360" xlink:href="#p" />
<use x="552" y="360" xlink:href="#p" />
<use x="564" y="360" xlink:href="#p" />
<use x="24" y="372" xlink:href="#p" />
<use x="60" y="372" xlink:href="#p" />
<use x="84" y="372" xlink:href="#p" />
<use x="120" y="372" xlink:href="#p" />
<use x="144" y="372" xlink:href="#p" />
<use x="192" y="372" xlink:href="#p" />
<use x="252" y="372" xlink:href="#p" />
<use x="264" y="372" xlink:href="#p" />
<use x="276" y="372" xlink:href="#p" />
<use x="312" y="372" xlink:href="#p" />
<use x="336" y="372" xlink:href="#p" />
<use x="372" y="372" xlink:href="#p" />
<use x="384" y="372" xlink:href="#p" />
<use x="408" y="372" xlink:href="#p" />
<use x="420" y="372" xlink:href="#p" />
<use x="432" y="372" xlink:href="#p" />
<use x="528" y="372" xlink:href="#p" />
<use x="84" y="384" xlink:href="#p" />
<use x="96" y="384" xlink:href="#p" />
<use x="108" y="384" xlink:href="#p" />
<use x="120" y="384" xlink:href="#p" />
<use x="144" y="384" xlink:href="#p" />
<use x="156" y="384" xlink:href="#p" />
<use x="168" y="384" xlink:href="#p" />
<use x="192" y="384" xlink:href="#p" />
<use x="216" y="384" xlink:href="#p" />
<use x="240" y="384" xlink:href="#p" />
<use x="252" y="384" xlink:href="#p" />
<use x="324" y="384" xlink:href="#p" />
<use x="336" y="384" xlink:href="#p" />
<use x="348" y="384" xlink:href="#p" />
<use x="360" y="384" xlink:href="#p" />
<use x="372" y="384" xlink:href="#p" />
<use x="408" y="384" xlink:href="#p" />
<use x="420" y="384" xlink:href="#p" />
<use x="456" y="384" xlink:href="#p" />
<use x="516" y="384" xlink:href="#p" />
<use x="528" y="384" xlink:href="#p" />
<use x="540" y="384" xlink:href="#p" />
<use x="576" y="384" xlink:href="#p" />
<use x="588" y="384" xlink:href="#p" />
<use x="600" y="384" xlink:href="#p" />
<use x="60" y="396" xlink:href="#p" />
<use x="72" y="396" xlink:href="#p" />
<use x="84" y="396" xlink:href="#p" />
<use x="108" y="396" xlink:href="#p" />
<use x="144" y="396" xlink:href="#p" />
<use x="168" y="396" xlink:href="#p" />
<use x="180" y="396" xlink:href="#p" />
<use x="192" y="396" xlink:href="#p" />
<use x="204" y="396" xlink:href="#p" />
<use x="252" y="396" xlink:href="#p" />
<use x="264" y="396" xlink:href="#p" />
<use x="288" y="396" xlink:href="#p" />
<use x="300" y="396" xlink:href="#p" />
<use x="312" y="396" xlink:href="#p" />
<use x="336" y="396" xlink:href="#p" />
<use x="360" y="396" xlink:href="#p" />
<use x="372" y="396" xlink:href="#p" />
<use x="396" y="396" xlink:href="#p" />
<use x="420" y="396" xlink:href="#p" />
<use x="432" y="396" xlink:href="#p" />
<use x="444" y="396" xlink:href="#p" />
<use x="468" y="396" xlink:href="#p" />
<use x="516" y="396" xlink:href="#p" />
<use x="528" y="396" xlink:href="#p" />
<use x="540" y="396" xlink:href="#p" />
<use x="588" y="396" xlink:href="#p" />
<use x="600" y="396" xlink:href="#p" />
<use x="24" y="408" xlink:href="#p" />
<use x="36" y="408" xlink:href="#p" />
<use x="48" y="408" xlink:href="#p" />
<use x="84" y="408" xlink:href="#p" />
<use x="96" y="408" xlink:href="#p" />
<use x="108" y="408" xlink:href="#p" />
<use x="120" y="408" xlink:href="#p" />
<use x="132" y="408" xlink:href="#p" />
<use x="240" y="408" xlink:href="#p" />
<use x="252" y="408" xlink:href="#p" />
<use x="264" y="408" xlink:href="#p" />
<use x="288" y="408" xlink:href="#p" />
<use x="360" y="408" xlink:href="#p" />
<use x="372" y="408" xlink:href="#p" />
<use x="396" y="408" xlink:href="#p" />
<use x="444" y="408" xlink:href="#p" />
<use x="468" y="408" xlink:href="#p" />
<use x="516" y="408" xlink:href="#p" />
<use x="552" y="408" xlink:href="#p" />
<use x="576" y="408" xlink:href="#p" />
<use x="36" y="420" xlink:href="#p" />
<use x="48" y="420" xlink:href="#p" />
<use x="132" y="420" xlink:href="#p" />
<use x="144" y="420" xlink:href="#p" />
<use x="156" y="420" xlink:href="#p" />
<use x="180" y="420" xlink:href="#p" />
<use x="192" y="420" xlink:href="#p" />
<use x="216" y="420" xlink:href="#p" />
<use x="228" y="420" xlink:href="#p" />
<use x="240" y="420" xlink:href="#p" />
<use x="252" y="420" xlink:href="#p" />
<use x="276" y="420" xlink:href="#p" />
<use x="312" y="420" xlink:href="#p" />
<use x="336" y="420" xlink:href="#p" />
<use x="372" y="420" xlink:href="#p" />
<use x="384" y="420" xlink:href="#p" />
<use x="396" y="420" xlink:href="#p" />
<use x="408" y="420" xlink:href="#p" />
<use x="420" y="420" xlink:href="#p" />
<use x="432" y="420" xlink:href="#p" />
<use x="444" y="420" xlink:href="#p" />
<use x="456" y="420" xlink:href="#p" />
<use x="528" y="420" xlink:href="#p" />
<use x="552" y="420" xlink:href="#p" />
<use x="564" y="420" xlink:href="#p" />
<use x="576" y="420" xlink:href="#p" />
<use x="588" y="420" xlink:href="#p" />
<use x="600" y="420" xlink:href="#p" />
<use x="24" y="432" xlink:href="#p" />
<use x="48" y="432" xlink:href="#p" />
<use x="96" y="432" xlink:href="#p" />
<use x="108" y="432" xlink:href="#p" />
<use x="168" y="432" xlink:href="#p" />
<use x="192" y="432" xlink:href="#p" />
<use x="204" y="432" xlink:href="#p" />
<use x="240" y="432" xlink:href="#p" />
<use x="252" y="432" xlink:href="#p" />
<use x="264" y="432" xlink:href="#p" />
<use x="276" y="432" xlink:href="#p" />
<use x="288" y="432" xlink:href="#p" />
<use x="336" y="432" xlink:href="#p" />
<use x="360" y="432" xlink:href="#p" />
<use x="384" y="432" xlink:href="#p" />
<use x="396" y="432" xlink:href="#p" />
<use x="444" y="432" xlink:href="#p" />
<use x="480" y="432" xlink:href="#p" />
<use x="492" y="432" xlink:href="#p" />
<use x="504" y="432" xlink:href="#p" />
<use x="516" y="432" xlink:href="#p" />
<use x="528" y="432" xlink:href="#p" />
<use x="540" y="432" xlink:href="#p" />
<use x="564" y="432" xlink:href="#p" />
<use x="600" y="432" xlink:href="#p" />
<use x="36" y="444" xlink:href="#p" />
<use x="48" y="444" xlink:href="#p" />
<use x="108" y="444" xlink:href="#p" />
<use x="120" y="444" xlink:href="#p" />
<use x="168" y="444" xlink:href="#p" />
<use x="216" y="444" xlink:href="#p" />
<use x="228" y="444" xlink:href="#p" />
<use x="252" y="444" xlink:href="#p" />
<use x="264" y="444" xlink:href="#p" />
<use x="276" y="444" xlink:href="#p" />
<use x="312" y="444" xlink:href="#p" />
<use x="360" y="444" xlink:href="#p" />
<use x="408" y="444" xlink:href="#p" />
<use x="420" y="444" xlink:href="#p" />
<use x="468" y="444" xlink:href="#p" />
<use x="504" y="444" xlink:href="#p" />
<use x="516" y="444" xlink:href="#p" />
<use x="528" y="444" xlink:href="#p" />
<use x="540" y="444" xlink:href="#p" />
<use x="564" y="444" xlink:href="#p" />
<use x="600" y="444" xlink:href="#p" />
<use x="36" y="456" xlink:href="#p" />
<use x="60" y="456" xlink:href="#p" />
<use x="84" y="456" xlink:href="#p" />
<use x="96" y="456" xlink:href="#p" />
<use x="108" y="456" xlink:href="#p" />
<use x="144" y="456" xlink:href="#p" />
<use x="156" y="456" xlink:href="#p" />
<use x="180" y="456" xlink:href="#p" />
<use x="192" y="456" xlink:href="#p" />
<use x="252" y="456" xlink:href="#p" />
<use x="264" y="456" xlink:href="#p" />
<use x="276" y="456" xlink:href="#p" />
<use x="312" y="456" xlink:href="#p" />
<use x="324" y="456" xlink:href="#p" />
<use x="336" y="456" xlink:href="#p" />
<use x="348" y="456" xlink:href="#p" />
<use x="396" y="456" xlink:href="#p" />
<use x="408" y="456" xlink:href="#p" />
<use x="420" y="456" xlink:href="#p" />
<use x="432" y="456" xlink:href="#p" />
<use x="444" y="456" xlink:href="#p" />
<use x="456" y="456" xlink:href="#p" />
<use x="468" y="456" xlink:href="#p" />
<use x="528" y="456" xlink:href="#p" />
<use x="564" y="456" xlink:href="#p" />
<use x="600" y="456" xlink:href="#p" />
<use x="48" y="468" xlink:href="#p" />
<use x="120" y="468" xlink:href="#p" />
<use x="132" y="468" xlink:href="#p" />
<use x="144" y="468" xlink:href="#p" />
<use x="168" y="468" xlink:href="#p" />
<use x="180" y="468" xlink:href="#p" />
<use x="204" y="468" xlink:href="#p" />
<use x="216" y="468" xlink:href="#p" />
<use x="228" y="468" xlink:href="#p" />
<use x="240" y="468" xlink:href="#p" />
<use x="252" y="468" xlink:href="#p" />
<use x="276" y="468" xlink:href="#p" />
<use x="288" y="468" xlink:href="#p" />
<use x="300" y="468" xlink:href="#p" />
<use x="312" y="468" xlink:href="#p" />
<use x="324" y="468" xlink:href="#p" />
<use x="348" y="468" xlink:href="#p" />
<use x="408" y="468" xlink:href="#p" />
<use x="420" y="468" xlink:href="#p" />
<use x="456" y="468" xlink:href="#p" />
<use x="468" y="468" xlink:href="#p" />
<use x="480" y="468" xlink:href="#p" />
<use x="528" y="468" xlink:href="#p" />
<use x="540" y="468" xlink:href="#p" />
<use x="552" y="468" xlink:href="#p" />
<use x="564" y="468" xlink:href="#p" />
<use x="576" y="468" xlink:href="#p" />
<use x="588" y="468" xlink:href="#p" />
<use x="600" y="468" xlink:href="#p" />
<use x="36" y="480" xlink:href="#p" />
<use x="84" y="480" xlink:href="#p" />
<use x="96" y="480" xlink:href="#p" />
<use x="108" y="480" xlink:href="#p" />
<use x="120" y="480" xlink:href="#p" />
<use x="132" y="480" xlink:href="#p" />
<use x="180" y="480" xlink:href="#p" />
<use x="192" y="480" xlink:href="#p" />
<use x="228" y="480" xlink:href="#p" />
<use x="312" y="480" xlink:href="#p" />
<use x="324" y="480" xlink:href="#p" />
<use x="372" y="480" xlink:href="#p" />
<use x="384" y="480" xlink:href="#p" />
<use x="408" y="480" xlink:href="#p" />
<use x="420" y="480" xlink:href="#p" />
<use x="456" y="480" xlink:href="#p" />
<use x="468" y="480" xlink:href="#p" />
<use x="480" y="480" xlink:href="#p" />
<use x="528" y="480" xlink:href="#p" />
<use x="540" y="480" xlink:href="#p" />
<use x="552" y="480" xlink:href="#p" />
<use x="564" y="480" xlink:href="#p" />
<use x="588" y="480" xlink:href="#p" />
<use x="600" y="480" xlink:href="#p" />
<use x="36" y="492" xlink:href="#p" />
<use x="48" y="492" xlink:href="#p" />
<use x="60" y="492" xlink:href="#p" />
<use x="120" y="492" xlink:href="#p" />
<use x="156" y="492" xlink:href="#p" />
<use x="192" y="492" xlink:href="#p" />
<use x="204" y="492" xlink:href="#p" />
<use x="240" y="492" xlink:href="#p" />
<use x="264" y="492" xlink:href="#p" />
<use x="288" y="492" xlink:href="#p" />
<use x="324" y="492" xlink:href="#p" />
<use x="336" y="492" xlink:href="#p" />
<use x="348" y="492" xlink:href="#p" />
<use x="384" y="492" xlink:href="#p" />
<use x="396" y="492" xlink:href="#p" />
<use x="420" y="492" xlink:href="#p" />
<use x="444" y="492" xlink:href="#p" />
<use x="456" y="492" xlink:href="#p" />
<use x="468" y="492" xlink:href="#p" />
<use x="516" y="492" xlink:href="#p" />
<use x="528" y="492" xlink:href="#p" />
<use x="540" y="492" xlink:href="#p" />
<use x="552" y="492" xlink:href="#p" />
<use x="564" y="492" xlink:href="#p" />
<use x="576" y="492" xlink:href="#p" />
<use x="24" y="504" xlink:href="#p" />
<use x="36" y="504" xlink:href="#p" />
<use x="48" y="504" xlink:href="#p" />
<use x="96" y="504" xlink:href="#p" />
<use x="108" y="504" xlink:href="#p" />
<use x="120" y="504" xlink:href="#p" />
<use x="168" y="504" xlink:href="#p" />
<use x="204" y="504" xlink:href="#p" />
<use x="216" y="504" xlink:href="#p" />
<use x="228" y="504" xlink:href="#p" />
<use x="240" y="504" xlink:href="#p" />
<use x="252" y="504" xlink:href="#p" />
<use x="276" y="504" xlink:href="#p" />
<use x="288" y="504" xlink:href="#p" />
<use x="300" y="504" xlink:href="#p" />
<use x="312" y="504" xlink:href="#p" />
<use x="324" y="504" xlink:href="#p" />
<use x="336" y="504" xlink:href="#p" />
<use x="360" y="504" xlink:href="#p" />
<use x="384" y="504" xlink:href="#p" />
<use x="396" y="504" xlink:href="#p" />
<use x="408" y="504" xlink:href="#p" />
<use x="420" y="504" xlink:href="#p" />
<use x="432" y="504" xlink:href="#p" />
<use x="456" y="504" xlink:href="#p" />
<use x="480" y="504" xlink:href="#p" />
<use x="504" y="504" xlink:href="#p" />
<use x="516" y="504" xlink:href="#p" />
<use x="528" y="504" xlink:href="#p" />
<use x="540" y="504" xlink:href="#p" />
<use x="552" y="504" xlink:href="#p" />
<use x="564" y="504" xlink:href="#p" />
<use x="576" y="504" xlink:href="#p" />
<use x="600" y="504" xlink:href="#p" />
<use x="120" y="516" xlink:href="#p" />
<use x="132" y="516" xlink:href="#p" />
<use x="192" y="516" xlink:href="#p" />
<use x="252" y="516" xlink:href="#p" />
<use x="264" y="516" xlink:href="#p" />
<use x="288" y="516" xlink:href="#p" />
<use x="336" y="516" xlink:href="#p" />
<use x="360" y="516" xlink:href="#p" />
<use x="384" y="516" xlink:href="#p" />
<use x="408" y="516" xlink:href="#p" />
<use x="420" y="516" xlink:href="#p" />
<use x="444" y="516" xlink:href="#p" />
<use x="456" y="516" xlink:href="#p" />
<use x="468" y="516" xlink:href="#p" />
<use x="504" y="516" xlink:href="#p" />
<use x="552" y="516" xlink:href="#p" />
<use x="588" y="516" xlink:href="#p" />
<use x="600" y="516" xlink:href="#p" />
<use x="24" y="528" xlink:href="#p" />
<use x="36" y="528" xlink:href="#p" />
<use x="48" y="528" xlink:href="#p" />
<use x="60" y="528" xlink:href="#p" />
<use x="72" y="528" xlink:href="#p" />
<use x="84" y="528" xlink:href="#p" />
<use x="96" y="528" xlink:href="#p" />
<use x="180" y="528" xlink:href="#p" />
<use x="192" y="528" xlink:href="#p" />
<use x="216" y="528" xlink:href="#p" />
<use x="252" y="528" xlink:href="#p" />
<use x="276" y="528" xlink:href="#p" />
<use x="288" y="528" xlink:href="#p" />
<use x="312" y="528" xlink:href="#p" />
<use x="336" y="528" xlink:href="#p" />
<use x="348" y="528" xlink:href="#p" />
<use x="360" y="528" xlink:href="#p" />
<use x="420" y="528" xlink:href="#p" />
<use x="432" y="528" xlink:href="#p" />
<use x="480" y="528" xlink:href="#p" />
<use x="492" y="528" xlink:href="#p" />
<use x="504" y="528" xlink:href="#p" />
<use x="528" y="528" xlink:href="#p" />
<use x="552" y="528" xlink:href="#p" />
<use x="576" y="528" xlink:href="#p" />
<use x="600" y="528" xlink:href="#p" />
<use x="24" y="540" xlink:href="#p" />
<use x="96" y="540" xlink:href="#p" />
<use x="120" y="540" xlink:href="#p" />
<use x="144" y="540" xlink:href="#p" />
<use x="156" y="540" xlink:href="#p" />
<use x="228" y="540" xlink:href="#p" />
<use x="240" y="540" xlink:href="#p" />
<use x="276" y="540" xlink:href="#p" />
<use x="288" y="540" xlink:href="#p" />
<use x="336" y="540" xlink:href="#p" />
<use x="348" y="540" xlink:href="#p" />
<use x="360" y="540" xlink:href="#p" />
<use x="372" y="540" xlink:href="#p" />
<use x="396" y="540" xlink:href="#p" />
<use x="420" y="540" xlink:href="#p" />
<use x="456" y="540" xlink:href="#p" />
<use x="480" y="540" xlink:href="#p" />
<use x="492" y="540" xlink:href="#p" />
<use x="504" y="540" xlink:href="#p" />
<use x="552" y="540" xlink:href="#p" />
<use x="24" y="552" xlink:href="#p" />
<use x="48" y="552" xlink:href="#p" />
<use x="60" y="552" xlink:href="#p" />
<use x="72" y="552" xlink:href="#p" />
<use x="96" y="552" xlink:href="#p" />
<use x="120" y="552" xlink:href="#p" />
<use x="132" y="552" xlink:href="#p" />
<use x="168" y="552" xlink:href="#p" />
<use x="192" y="552" xlink:href="#p" />
<use x="204" y="552" xlink:href="#p" />
<use x="228" y="552" xlink:href="#p" />
<use x="240" y="552" xlink:href="#p" />
<use x="288" y="552" xlink:href="#p" />
<use x="300" y="552" xlink:href="#p" />
<use x="312" y="552" xlink:href="#p" />
<use x="324" y="552" xlink:href="#p" />
<use x="336" y="552" xlink:href="#p" />
<use x="348" y="552" xlink:href="#p" />
<use x="360" y="552" xlink:href="#p" />
<use x="408" y="552" xlink:href="#p" />
<use x="420" y="552" xlink:href="#p" />
<use x="432" y="552" xlink:href="#p" />
<use x="456" y="552" xlink:href="#p" />
<use x="468" y="552" xlink:href="#p" />
<use x="504" y="552" xlink:href="#p" />
<use x="516" y="552" xlink:href="#p" />
<use x="528" y="552" xlink:href="#p" />
<use x="540" y="552" xlink:href="#p" />
<use x="552" y="552" xlink:href="#p" />
<use x="564" y="552" xlink:href="#p" />
<use x="600" y="552" xlink:href="#p" />
<use x="24" y="564" xlink:href="#p" />
<use x="48" y="564" xlink:href="#p" />
<use x="60" y="564" xlink:href="#p" />
<use x="72" y="564" xlink:href="#p" />
<use x="96" y="564" xlink:href="#p" />
<use x="144" y="564" xlink:href="#p" />
<use x="204" y="564" xlink:href="#p" />
<use x="216" y="564" xlink:href="#p" />
<use x="240" y="564" xlink:href="#p" />
<use x="252" y="564" xlink:href="#p" />
<use x="312" y="564" xlink:href="#p" />
<use x="396" y="564" xlink:href="#p" />
<use x="408" y="564" xlink:href="#p" />
<use x="492" y="564" xlink:href="#p" />
<use x="516" y="564" xlink:href="#p" />
<use x="528" y="564" xlink:href="#p" />
<use x="552" y="564" xlink:href="#p" />
<use x="576" y="564" xlink:href="#p" />
<use x="588" y="564" xlink:href="#p" />
<use x="600" y="564" xlink:href="#p" />
<use x="24" y="576" xlink:href="#p" />
<use x="48" y="576" xlink:href="#p" />
<use x="60" y="576" xlink:href="#p" />
<use x="72" y="576" xlink:href="#p" />
<use x="96" y="576" xlink:href="#p" />
<use x="120" y="576" xlink:href="#p" />
<use x="156" y="576" xlink:href="#p" />
<use x="180" y="576" xlink:href="#p" />
<use x="204" y="576" xlink:href="#p" />
<use x="264" y="576" xlink:href="#p" />
<use x="288" y="576" xlink:href="#p" />
<use x="300" y="576" xlink:href="#p" />
<use x="312" y="576" xlink:href="#p" />
<use x="324" y="576" xlink:href="#p" />
<use x="336" y="576" xlink:href="#p" />
<use x="360" y="576" xlink:href="#p" />
<use x="372" y="576" xlink:href="#p" />
<use x="396" y="576" xlink:href="#p" />
<use x="420" y="576" xlink:href="#p" />
<use x="456" y="576" xlink:href="#p" />
<use x="468" y="576" xlink:href="#p" />
<use x="492" y="576" xlink:href="#p" />
<use x="540" y="576" xlink:href="#p" />
<use x="552" y="576" xlink:href="#p" />
<use x="564" y="576" xlink:href="#p" />
<use x="600" y="576" xlink:href="#p" />
<use x="24" y="588" xlink:href="#p" />
<use x="96" y="588" xlink:href="#p" />
<use x="132" y="588" xlink:href="#p" />
<use x="144" y="588" xlink:href="#p" />
<use x="168" y="588" xlink:href="#p" />
<use x="204" y="588" xlink:href="#p" />
<use x="216" y="588" xlink:href="#p" />
<use x="276" y="588" xlink:href="#p" />
<use x="288" y="588" xlink:href="#p" />
<use x="300" y="588" xlink:href="#p" />
<use x="312" y="588" xlink:href="#p" />
<use x="384" y="588" xlink:href="#p" />
<use x="408" y="588" xlink:href="#p" />
<use x="432" y="588" xlink:href="#p" />
<use x="444" y="588" xlink:href="#p" />
<use x="456" y="588" xlink:href="#p" />
<use x="480" y="588" xlink:href="#p" />
<use x="504" y="588" xlink:href="#p" />
<use x="516" y="588" xlink:href="#p" />
<use x="528" y="588" xlink:href="#p" />
<use x="588" y="588" xlink:href="#p" />
<use x="24" y="600" xlink:href="#p" />
<use x="36" y="600" xlink:href="#p" />
<use x="48" y="600" xlink:href="#p" />
<use x="60" y="600" xlink:href="#p" />
<use x="72" y="600" xlink:href="#p" />
<use x="84" y="600" xlink:href="#p" />
<use x="96" y="600" xlink:href="#p" />
<use x="168" y="600" xlink:href="#p" />
<use x="228" y="600" xlink:href="#p" />
<use x="252" y="600" xlink:href="#p" />
<use x="288" y="600" xlink:href="#p" />
<use x="324" y="600" xlink:href="#p" />
<use x="336" y="600" xlink:href="#p" />
<use x="348" y="600" xlink:href="#p" />
<use x="384" y="600" xlink:href="#p" />
<use x="396" y="600" xlink:href="#p" />
<use x="408" y="600" xlink:href="#p" />
<use x="420" y="600" xlink:href="#p" />
<use x="444" y="600" xlink:href="#p" />
<use x="456" y="600" xlink:href="#p" />
<use x="468" y="600" xlink:href="#p" />
<use x="480" y="600" xlink:href="#p" />
<use x="504" y="600" xlink:href="#p" />
<use x="552" y="600" xlink:href="#p" />
<use x="588" y="600" xlink:href="#p" />
<use x="600" y="600" xlink:href="#p" />
</g>
</svg>